# xmcd
#
# Track frame offsets: 
#        150
#        24225
#        35445
#        52125
#        62102
#        77915
#        91327
#        103750
#        126507
#        144650
#        161038
#        174274
#        185301
#        206727
#        220560
#        237980
#        246710
#        257333
#        268208
#        277850
#        295224
#
# Disc length: 4172 seconds
#
# Revision: 0
# Processed by: cddbd v1.5.1PL0 Copyright (c) Steve Scherf et al.
# Submitted via: ExactAudioCopy v0.95a5
#
DISCID=3c104a15
DTITLE=Wilbert Harrison - Kansas City - The Best Of
DYEAR=2000
DGENRE=Blues
TTITLE0=Let's Work Together Pts 1 and 2
TTITLE1=Kansas City
TTITLE2=What Am I Living For
TTITLE3=CC Rider
TTITLE4=Stagerlee
TTITLE5=Going To The River
TTITLE6=Honest I Do
TTITLE7=I Don't Know
TTITLE8=Just Because
TTITLE9=He'll Have To Go
TTITLE10=My Babe
TTITLE11=I Got To Know
TTITLE12=I'll Never Trust Another Woman
TTITLE13=My Dream
TTITLE14=Little Liza Jane
TTITLE15=My Love
TTITLE16=Clementine
TTITLE17=New York's World Fair (at The World Fair)
TTITLE18=Until The Real Thing Comes Along
TTITLE19=Girls On Parade
TTITLE20=When The Saints Go Marching In
EXTD=
EXTT0=
EXTT1=
EXTT2=
EXTT3=
EXTT4=
EXTT5=
EXTT6=
EXTT7=
EXTT8=
EXTT9=
EXTT10=
EXTT11=
EXTT12=
EXTT13=
EXTT14=
EXTT15=
EXTT16=
EXTT17=
EXTT18=
EXTT19=
EXTT20=
PLAYORDER=
